<svg version="1.0" xmlns="http://www.w3.org/2000/svg" width="1024" height="1024">
    <g fill="#432718">
        <path d="M504 955.9c-19.9-3.3-54.8-12.5-86-22.5-36.4-11.8-67.1-23.8-112.5-44.1-36-16.1-118.3-60.1-134.9-72.1-6-4.4-9-10.4-8-15.9 1.3-7 6.6-20.7 12.1-31.5 12.7-24.4 32.4-45.3 58.3-61.8 7.7-4.9 39.6-20.8 48-24 1.9-.7 10.7-4.8 19.5-9.1 12.7-6.1 17.2-8.9 21.6-13.1 6.4-6.2 9.1-11.2 9.2-17.5 0-4.3-.3-4.8-5.5-9.4-9.6-8.4-9.4-7.6-18.3-87.4-2-17.6-4.2-37.4-5-44-.8-6.6-1.5-12.1-1.5-12.2 0-.2-4.1-2.4-9.2-4.9-26.2-13.2-45.1-28.3-58.2-46.7-6.4-9-7.9-13-7.4-19.9.3-4.7 1-6.4 3.3-8.8 5.6-5.9 8.7-5.9 33.5-.1 4.7 1.1 9.6 2.1 10.9 2.1 2.1 0 1.8-.5-2.5-4.2-7.8-6.7-13-12.7-19.3-21.8-10.3-15.1-19.1-35-19.1-43.5 0-7.9 5.5-14.7 12.9-15.9 5.1-.8 8.3.5 19.6 7.8 9.4 6.2 21.1 12.3 22 11.5.3-.3-.8-3-2.4-6-4.4-8.1-7-15.2-10.1-27.4l-2.8-11-5.3-3.8c-15-10.5-21.8-17.7-28.7-30.7-14.4-26.8-14.3-59.4.2-89.5 5.5-11.5 9.8-18.2 19.5-30.3 17.4-21.6 42.4-42.5 72.6-60.6 17.5-10.6 26.3-12 33.1-5.2 4.7 4.7 5 8.8 1.4 23.6-6.5 26.7-10 50.9-10 69v10.5l3.4-4c5-5.9 12.3-18.5 17.4-29.9 5-11.5 8-15.2 13.4-16.7 6.9-1.8 13.3 1.2 16.8 8 6.1 11.8 11.5 48.9 9.1 63-.6 3.6-.9 6.7-.6 6.9.2.2 3.5-1.3 7.3-3.3 7.8-4.1 7.6-3.7 12.1-19 7.5-25.8 10-32.2 13.6-35.4 4.1-3.5 8.8-4.7 13-3.1 4.3 1.6 5.7 3.1 15.1 15.7 4.6 6.1 8.7 11.4 9.2 11.7.8.4 14.2-27.1 14.2-29.2 0-.4 1.3-2.1 3-3.7 5.5-5.3 17.3-4.2 21.4 2.1.9 1.3 4.4 8.5 7.9 16.1 3.5 7.5 6.7 13.8 7.2 13.9.6.2 5.3-5.4 10.5-12.4 10.5-13.9 13.5-16.1 20.6-14.7 7.2 1.3 9.6 5 16.2 26.1 3.3 10.4 6.6 20.9 7.4 23.4 1.2 4.2 1.8 4.8 8.6 8.3 4.1 2.2 7.6 3.7 7.8 3.4.3-.3.1-3.1-.5-6.3-1.5-7.9-1.4-17.2.4-30.6 1.8-13.9 5.8-28.9 9-34.5 4.6-7.8 14.8-9.1 22.2-2.9 1.8 1.5 4.7 6.6 7.7 13.5 6.8 15.7 18.4 33.9 20.7 32.5 1.8-1.1-1.5-36.5-5.2-56.4-1.1-5.8-3.2-15-4.6-20.5-4.5-17.8-3.4-23.8 5.4-27.7 3.3-1.5 5.5-1.8 8.6-1.2 8.9 1.5 36 17.6 55.7 33.2 13.2 10.4 35.2 32.9 43.2 44.2 22.9 32.2 29.8 64.8 20.1 95.5-6.3 19.9-16.4 33.9-33.4 45.9l-7.3 5.2-1.6 6.9c-2.4 10.3-5.8 20-10.2 28.9-2.1 4.3-3.6 8.1-3.4 8.3.6.7 17.5-8.2 27-14.2 6.9-4.3 8.6-5 12.7-4.9 13.1.5 18.4 12.6 12.3 28.2-7.8 19.6-17.3 34.4-30.6 47.5-11.2 11-11.2 11.1 4.5 7.2 21.6-5.5 25.7-5.4 31.3.1 6.7 6.8 6.5 14.9-.7 25.5-13.3 19.6-34.4 37.1-59.7 49.4-7.2 3.5-10.4 5.6-10.6 7-.3 1.1-1.4 11.2-2.6 22.5-1.8 17.6-4.1 37.9-9 81-3.3 28.7-4.1 31.2-12.1 38.2-5.7 5-5.9 5.4-5.9 10.1 0 8.5 4.8 15.2 16.3 22.8 6 4 18.3 10.2 27.5 13.8 11.5 4.6 36.5 16.6 46.3 22.2 14.9 8.5 26.6 17.5 38.9 29.8 16.9 16.9 28.5 35.8 36.5 59.5 4.3 12.5 4.1 15.7-.8 20.9-2.7 2.9-23.5 15.9-40.2 25.2-64.5 35.8-127.9 65.3-185.9 86.2-40.3 14.6-82.9 26.7-107.6 30.8-10.5 1.7-12 1.7-20 .4zm-50.6-61.4-.7-11.6 4.9-4.4c5.7-5.3 9-5.7 16.2-2.1 24.1 12.1 50 12.3 75.7.7 9.1-4.1 11.2-4 17 1.1l4.8 4.2-.7 10.8c-.4 7-.3 10.8.4 10.8 1.4 0 6.8-11 8-16.5 1.2-5.5.6-7-5.6-13.7-3.5-3.7-4.4-5.5-4.4-8.2 0-3 .4-3.7 2.5-4.2 2.8-.7 22.1 1.4 24.6 2.7.9.5 3.8 4.9 6.3 9.9 2.6 4.9 5.2 9 5.8 9 2 0 .1-10.5-3-16.6-5.1-10-10-13.4-19.7-13.4-8 0-8.5-.4-8.5-6.4 0-7.6.8-9.3 5.4-12 2.4-1.4 6-4.4 8.1-6.7 3.6-4 9.5-15.3 9.5-18.2 0-.8 1.8-2.2 3.9-3.2 7.7-3.4 14.1-12.5 15.7-22.1 1.5-9.9-6-25.6-16.4-34-6-4.9-9.3-6.8-15.3-8.9l-3.9-1.4 2.1 5.2c6.6 16.5 7 18.2 6.7 29l-.3 10.2h-3.9c-3.9 0-4-.2-9.4-8.9-5.1-8.2-5.7-8.7-7-7-4 5.3 2.9 22.4 13.4 33 7.5 7.6 8 10 3.6 17.9-2.5 4.6-3 5-6.5 5-3.7 0-3.9-.2-6.1-5.7-3.6-8.8-8.1-15.1-16.1-22.6-8.2-7.7-17.3-12.8-28.5-16.3-10.7-3.4-29.2-3.4-40 0-19.1 5.9-35.1 19.8-43.8 38.2-3.5 7.4-3.9 7.8-6.9 7.9-2.8 0-3.7-.7-6-4.2-1.5-2.5-2.8-6.2-3-8.8-.4-4.4-.3-4.7 6.6-11.9 8.3-8.6 13.3-17.7 13.8-25.4.2-2.9-.1-5.9-.6-6.7-.9-1.3-1.2-1.3-2.8.3-1 .9-3.6 4.8-5.9 8.5-3.9 6.4-4.2 6.7-8 6.7h-3.9l-.3-10.8c-.2-9.9 0-11.5 2.8-19.5 1.7-4.8 3.5-9.9 4-11.4l.9-2.8-3.3 1.4c-5.8 2.4-8.4 4-13.9 8.6-10.3 8.5-16.9 20.7-17.1 31.5-.2 10.9 8.3 23.9 17 26.1 1.5.4 2.4 1.6 2.8 3.7 1.8 9.3 9.2 19.6 17.1 23.8l4.5 2.4v14.2l-3.7.7c-2.1.3-5.3.6-7.1.6-5.4 0-9.8 2.5-13.6 7.7-4.7 6.5-8.2 17.3-7 21.6 1 3.2 1 3.2 6.3-7.1 3.3-6.5 6-10.6 7.4-11.2 2.9-1.1 16.6-3 22.2-3h4.5v4.8c0 4.5-.3 5.1-4 8.1-6.3 5-7.2 7.6-5.4 14.6 1.5 5.7 6.9 17.5 8 17.5.3 0 .2-5.2-.2-11.5zm-75-37c2.2-6.2 4.8-10.7 9.7-16.7l3.9-4.6-2.4-1.5c-3.6-2.4-14.3-16.2-17.6-22.6-5-10.1-6.4-16.4-6.4-29.6 0-16.3 3.2-26.5 12.2-38.9l3.6-4.9-64.5.6c-71.9.7-73.6.8-86.1 7.4-9.1 4.7-22.6 17.8-29.5 28.3-6 9.4-13 24.7-11.7 25.9.5.5 9.5 5.7 20 11.4 10.5 5.8 25.4 14.1 33.1 18.6 7.7 4.4 14.3 8.1 14.7 8.1.8 0 47.4-39.9 50-42.9 1.2-1.3 3.1-2.1 5.2-2.1 3.2 0 3.6.5 9 9.8 6 10.1 20.4 33 30.2 48 3.2 4.8 9.8 14.9 14.7 22.4l9 13.6.6-12.6c.4-8.2 1.2-14.5 2.3-17.7zm285.9 6.3c17.9-27.2 30.3-46.6 37.8-59.5 5.3-9 5.5-9.2 9.2-9.2 3.6-.1 5.5 1.3 29 21.9 16.6 14.5 25.7 21.8 26.7 21.5 1.3-.5 67-37.3 67.8-38 .7-.6-6-15.5-10.5-23-5.9-10.3-21.2-25.7-29.9-30.2-10.9-5.8-15.1-6.4-47.9-7.3-16.5-.5-46.5-.9-66.7-.9l-36.7-.1 5.3 7.8c8.8 13 12.5 28.2 10.6 43.4-1.9 15.2-6.9 25.2-19.1 38.2l-7.7 8.1 4.1 4.5c6.7 7.6 10.5 16.8 11.8 29 .5 5.8.8 12 .4 13.8-.3 1.7-.4 3.2-.1 3.2.3 0 7.5-10.5 15.9-23.2zM456.6 680c6.7-2.9 10.7-7.3 16.5-18.1 6.2-11.7 11.4-18.1 17.3-21.2 3.6-1.8 6.1-2.2 19.6-2.5 14.1-.3 16-.2 21.3 1.8 8.6 3.2 11.9 6.7 17.9 18.8 2.9 5.8 7 12.3 9 14.4 7.2 7.2 17.5 10.5 27.5 8.7 32.4-5.7 56.5-29.6 65.7-65.3 3-11.3 6-32.7 7.5-53.6 1.8-24.3 1.8-24.1.1-23.4-13.3 5.1-31.2 7.8-47.5 7.2-32.4-1.4-59.9-15.1-77.9-39-4.7-6.1-8-8.3-15.4-10.4-5.8-1.6-6.5-1.6-12.8.1-7.2 2-8.4 2.9-22.3 18.4-12.3 13.7-29.1 23.9-46.6 28.3-7.6 1.9-11.8 2.2-26.5 2.2-18.2.1-27.2-1.2-39.7-5.5-3.1-1-5.8-1.8-5.9-1.6-.7.7 2.7 43.1 4.6 56.8 2.3 16.3 3.9 23.5 7.6 32.9 6.5 16.5 15.2 28.6 26.7 37.2 12.1 8.9 20.4 12.7 34.2 15.3 7.9 1.5 13.1 1.1 19.1-1.5zm226.6-63.3c1.1-1.5 2.6-6.3 3.3-10.5 2.6-14.9 12.6-100.6 14.1-120.7.8-10.5 1.4-12 5.1-13 5.3-1.3 23.6-10.8 33.7-17.5 11.3-7.4 26.8-21.6 22.6-20.5-9.5 2.3-44.1 2.9-55.7.8l-3.3-.5v-19.6l9.3-5.1c18.4-10.2 35.4-26.8 46.6-45.4l2.3-3.7-10.4 5.5c-14 7.4-32.8 13.5-43.5 14.2-8.2.6-8.2.6-9.3-2.1-1.7-4.5-1.3-14.1.7-15.7 2.9-2.4 15.3-22 19.9-31.4 5.4-11.1 9.9-24.8 12-36.6l1.7-8.9 7.1-3.4c16.8-8.3 28.6-24.7 33.1-46.1 1.9-9.3 1.9-16.4 0-25.2-6.4-30.5-28.1-58.8-67.5-88.2-15.2-11.4-22.3-15.8-21.6-13.4 1.3 4.6 4.8 23.9 6.1 34.3 2.3 17.6 2.9 34 1.6 50-1.3 15.8-2.3 21.1-4.7 23.5-2.5 2.4-9.7 1.9-16.2-1.2-8-3.9-22-18.1-30.9-31.5l-7.1-10.6-1.3 8.6c-.9 6.7-1 11.1-.1 18.7 4.3 39 30.9 71.9 66 81.7l8.2 2.3v3.9c0 5.6-5.9 26.7-9.4 33.9-3 6-3.3 6.2-7.3 6.5l-4.1.3-4.7-9.5c-19-38.8-54.2-73.8-93.5-92.9l-10.5-5.1-4.8-18c-2.7-10-5.1-18.4-5.6-18.9-.4-.4-4.7 4.3-9.6 10.4-4.9 6.1-10.3 11.8-11.9 12.6-4.1 2.1-14 1.4-16.6-1.3-1-1-4.6-8-8-15.4-3.5-7.4-6.4-13.7-6.6-13.9-.2-.2-3.3 5.9-6.9 13.5-8.5 17.8-9 18.4-17.3 18.4-4.1 0-7.3-.6-9-1.6-1.5-.9-6.5-6.3-11.1-12.1-4.6-5.7-8.5-10.2-8.7-10-.4.4-8.6 28.8-9.7 33.7-.5 2-2.5 3.4-10.1 6.9-36.2 16.5-72.2 51.6-92.6 89.9-6.3 11.9-7 12.7-9.9 13-1.8.2-3.9-.2-4.6-.8-3.4-2.8-12.5-32-12.5-40v-3.8l6.6-1.6c17.3-4.4 34.3-16.5 47.5-33.9 14-18.6 21.2-42.3 18.9-62.5-.6-5.3-1.3-10.3-1.6-11-.2-.8-3.1 2.7-6.5 8-8 12.1-24.4 28.7-32 32.2-6.2 2.9-13.9 3.5-15.9 1.1-3.8-4.6-5.4-50.5-2.6-73.5 1.3-10.3 4.7-28.5 6.2-33.4.6-1.7.3-1.7-3.4.4-6 3.4-24.3 17.1-34.7 26.1-37.1 31.8-55.9 66.5-51.7 95.5 3.3 22.7 15.4 40.8 32.9 49l8 3.8 1.8 9.5c4.3 23.3 15.9 48.8 29.6 65.2 3.4 4 3.9 5.4 3.9 9.5 0 2.7-.5 6.6-1.1 8.7-.9 3.5-1.2 3.7-5 3.7-9.3 0-37-9-50.4-16.4-3.6-2-6.5-3.2-6.5-2.7 0 2.7 11.6 17.9 19.9 26.2 9.8 9.7 24.8 20.5 32.6 23.5 3.7 1.4 4.3 2.1 4.9 5.2.3 2.1.3 6.7-.1 10.4-.5 6.4-.7 6.6-3.6 7.2-5.5 1.1-42.1.5-50.7-.8-4.7-.7-8.6-1.2-8.8-1.1-.7.6 14.7 13.9 22.8 19.6 10.8 7.6 30.6 18.3 37.3 20 3.7 1 4.7 1.7 4.7 3.3.1 2.2 1.2 13.6 5.4 54.6 4.6 45.3 8.7 76.5 10.7 82.7 1 3.1 6.6 8.9 7.6 7.9.3-.2 0-2.8-.6-5.8-2-10.5-7.6-73.5-8.8-99l-.6-13.8h3c1.7 0 9 2.7 16.3 6.1 32.9 14.9 57.5 17 81.8 7.1 12.3-5.1 18.1-9.2 31.5-22.5 10.7-10.4 14.3-13.4 20.5-16.5 7.3-3.6 8.1-3.7 19.7-4 9.1-.3 13.4 0 17.8 1.3 6.9 2 19.7 10.3 23.4 15.2 4.7 6.2 19.4 18.1 27.3 22.3 27.8 14.4 58.3 13.1 93.5-4.1 5.9-2.9 11.4-4.9 13.3-4.9h3.4l-.6 6.8c-.3 3.7-1.1 14.8-1.6 24.7-.6 9.9-1.5 23.2-2 29.5-.6 6.3-1.5 17.6-2 25-.8 12-3 26.8-4.7 32.5l-.6 2 2.3-2c1.2-1.1 3.1-3.2 4.2-4.8z"/>
        <path d="M501.8 869.4c-4.6-2.5-7.9-9.3-8.5-17.9l-.6-7.5H530l.6 2.6c1 3.8 0 11.4-2.1 15.7-1 2.1-3.4 4.9-5.4 6.3-3 2-4.7 2.4-11.1 2.4-4.6-.1-8.5-.6-10.2-1.6zM467.9 846.7c-5.5-3.6-7.9-9.6-7.9-19.7 0-9.9 1.9-15.1 6.9-19.3 2.9-2.4 4.1-2.7 10.8-2.7 11.5 0 16.3 4 18.4 15.5 2.1 11.5-2 23.3-9.4 26.8-5.3 2.5-14.6 2.2-18.8-.6zM537.4 847.6c-10.2-4.5-13.7-25.2-6.2-36.2 3.4-4.9 6.7-6.4 14.5-6.4 9 0 12.6 2.1 16 9.6 2.2 4.9 2.5 6.6 2.1 13.8-.6 10.6-3.2 16-9.1 18.7-4.9 2.2-12.8 2.4-17.3.5zM437.7 618c-22.2-2.8-47.5-17.4-54.7-31.6-3.5-7-4-17.7-1.1-23.7 3.3-6.7 7.3-9.2 15.1-9.2h6.5l.1 6c.1 3.4.5 7.1.9 8.4.8 2.7 4.7 4.3 8.3 3.5 4.6-1.1 17.3-7.8 27.2-14.4 17.7-11.7 27.8-14.9 43.3-13.7 6.8.6 9.3 1.3 17.8 5.6 11.3 5.6 11 5.6 22.4-.3 8.8-4.5 16-6 25.5-5.3 11 .9 18.9 4 33.5 13.2 14.8 9.4 18.9 11.5 26.2 13.9 4.7 1.6 5.4 1.6 8.2.1 3.4-1.7 4-3.3 4.3-11.5l.3-5.5 4.4-.3c6-.4 8.5.3 12.5 3.9 9.6 8.4 8.6 25.1-2.2 37-5.7 6.4-14.5 12.7-23.6 17-12.9 6-19.4 7.2-39.1 7.2-24.2 0-33.6-2.9-53.3-15.9l-8.2-5.5-6.6 4.6c-9.3 6.5-21.4 12.3-30.1 14.5-8.7 2.3-27.7 3.3-37.6 2zM603.5 503c-19.6-2-35.7-13.3-44.3-30.9l-3.7-7.6V450c0-14.1.1-14.7 3.1-21 7.2-15.1 26.8-30.3 44.6-34.5 8.6-2 28.2-2 36.2.1 17.7 4.6 30.7 17.1 35.1 33.9 1.9 7.4 1.9 22.8 0 31.8-2 9.7-7.5 19.4-14.9 26.5-13.5 13-33 18.6-56.1 16.2zM390.2 501c-17.6-4.6-30.9-16.3-38.1-33.2-2.5-5.9-2.6-7.2-2.6-22.3.1-18.2 1.4-23.1 8.5-32.6 10.2-13.6 25.6-20.3 46.5-20.2 13.5 0 19.5 1.3 30.4 6.5 6.9 3.3 10.1 5.7 17.7 13.2 7.6 7.5 10 10.6 13 17.1 3.3 6.8 3.9 9.1 4.2 16.7.9 17.4-3.9 29.7-15.8 41.2-7.3 7.1-15.1 11.4-25.5 14.1-8.6 2.2-28.9 1.9-38.3-.5z"/>
    </g>
    <g fill="#f66521">
        <path d="M450.3 908.7c-5.8-8.5-10.3-23.4-8.9-29.2.4-1.7 3-5.1 5.7-7.6 5-4.8 6.3-7.9 3.2-7.9-4.7.1-19.5 2.8-20.5 3.8-.6.6-3.4 5.5-6.2 10.8-5.7 10.9-7.6 12.8-10.2 10.2-2.8-2.8-3-11.7-.5-19.6 4-12.3 10.9-19.2 19.3-19.2 1.8 0 5-.3 7.1-.6 3.6-.6 3.7-.8 3.7-4.8 0-3.8-.3-4.3-4.5-6.5-7.8-4.1-15.2-14.3-17.1-23.6-.5-2.4-1.7-3.5-5.8-5.5-9.4-4.7-15.4-17.2-14.3-30 1-12 7.2-23.6 17.3-32 6.6-5.5 15.7-10 20.3-10h3.4l-.6 4.8c-.4 2.6-2.1 8.3-3.9 12.7-2.7 6.9-3.2 9.2-3.2 17.2-.1 5.3.3 9.3.9 9.4.5.1 3-3.1 5.5-7.1 7.6-12.2 11.9-13.8 14.8-5.4 3.1 9-2.6 23.7-13.8 35.5-7.6 8.1-7.7 8.3-3.3 15.3l2.5 3.8 3.9-8c9.1-18.8 24.7-32.4 43.9-38.4 6.5-2 9.6-2.3 23-2.3 17.5 0 24.4 1.5 37.5 8.3 10.3 5.4 23.1 18.4 27.8 28.2 1.9 4.1 3.8 8.3 4.1 9.3.8 2.5 2.2 1.3 5.1-4.3l2.5-4.9-6.4-6.5c-8.6-8.7-13.7-18.8-14.4-28.5-.6-8.4.9-13.1 4.2-13.1 3.3 0 4.5 1.2 10.1 10.1 2.8 4.6 5.6 8.3 6.1 8.1.5-.1.9-4.2.8-9 0-7.8-.5-9.7-4.2-18.9-2.3-5.5-4.2-11.6-4.2-13.3 0-3.3 0-3.3 4.4-2.8 14.9 1.7 32 17.7 36.2 33.8 4.1 16.2-2.2 32.9-14.7 38.5-2.1 1-3.9 2.4-3.9 3.2 0 2.9-5.9 14.2-9.5 18.2-2.1 2.3-5.7 5.3-8.1 6.7-2.3 1.3-4.5 3.5-4.8 4.7-.8 3.1-.7 6.7.2 6.8.4.1 3 .3 5.7.5 12.4.9 16.4 3.5 21.8 13.8 2.9 5.5 3.2 6.9 3.2 15.3 0 15.4-2.9 15.3-11.3-.3-2.9-5.4-5.7-10.3-6.2-10.8-1.3-1.3-19.2-3.6-20.8-2.7-1.1.6-.2 2.1 3.7 6.4 5.8 6.5 6.6 8.7 5.7 16.1-1.1 8.6-9.6 24.6-13.1 24.6-1.9 0-2.9-8.6-2-18.5l.7-8.2-4.7-4.1-4.6-4-6.6 3c-26.4 11.9-56.7 11.6-81.6-.9l-4.8-2.4-4.3 3.6c-2.5 2-4.7 4.3-5 5.1-.3.8-.3 5.5.1 10.3 1 15.2-1.4 20.2-6.4 12.8zm69.2-42.7c1.8-1.1 3.9-3 4.7-4.3 2.4-3.6 4-9.6 3.4-12.3l-.6-2.4h-31.2l.7 4.8c.8 5.9 4.7 12.7 8.3 14.6 3.9 2.2 10.9 2 14.7-.4zm-35.8-21.7c11.9-5.6 12.7-27.9 1.2-34.7-4.4-2.6-11.2-2.1-15 1.1-9.6 8.1-9 26.4 1 33 4 2.7 8 2.9 12.8.6zm68-.2c5-2.3 8.2-7.8 9-15.6.7-6.9-2.9-15.5-7.9-18.5-11.8-7.2-24.8 5.3-21.8 21 1.2 6.2 4.9 11.6 9.4 13.6 4.2 1.8 6.3 1.7 11.3-.5zM643.7 894.8c1.7-6.3 1.9-23.4.4-30.1-1.7-7.4-6.5-15.9-12.6-22.6l-5.6-6 7.1-6.8c15.9-15 23.1-29.7 23.1-47.2 0-14.2-6.5-29.1-17.8-41.2l-4.6-4.9 42.9.1c23.6 0 56.4.4 72.9.9 32.8.9 37 1.5 47.9 7.2 8.8 4.6 24.8 21 30.6 31.2 5.2 9.3 11.3 24 10.8 26.2-.3 1.6-72.3 42.8-73.8 42.2-.5-.2-12.6-10.5-26.9-23-14.3-12.6-26.3-22.8-26.8-22.7-.4 0-3.9 5.3-7.7 11.7-8.5 14.4-32.6 51.8-45.4 70.7C649.1 894 644.4 900 643 900c-.4 0-.1-2.4.7-5.2zM376.8 896.3c-1.4-1.6-8.3-11.6-15.3-22.3-7-10.7-14-21.3-15.5-23.5-4.8-7.1-21.5-33.7-27.4-43.9l-5.8-9.8-5.2 4.9c-2.8 2.7-14.4 12.9-25.8 22.6-11.3 9.7-20.9 18.1-21.3 18.7-1.2 1.9-3.3 1-19-8.1-8.6-4.9-24.1-13.6-34.3-19.3-24.3-13.4-23.3-12.7-22.6-15.1 1.8-6 9.4-21.7 13.7-28.4 6.8-10.5 20.4-23.6 29.3-28.3 9.6-5.1 13.1-5.8 34.9-6.8 19.8-.9 125.4-1.4 126.3-.6.2.3-1.8 3.1-4.6 6.2-16.9 18.9-20.4 44.3-9.2 66.5 3.7 7.2 13.7 19.6 19.3 23.9l4.3 3.4-5.5 5.6c-6 6-10.4 13.6-12.6 22.1-1.6 6-2 25.2-.6 31.2 1.1 4.4.4 4.6-3.1 1zM345.6 627c-5.7-4.8-8.8-8-9.5-10.2-2-6.3-6-37.4-10.7-82.8-4.2-41.3-5.3-52.4-5.4-54.6 0-1.6-.8-2.3-3.2-2.8-5.4-1-28.6-13.2-38.3-20.1-4.9-3.6-11.7-8.9-15-11.8-6-5.4-15.2-16.4-14.3-17.2.2-.2 2.8.2 5.8 1.1 10.8 2.9 24.6 4.4 40.6 4.4 8.9 0 17.5-.3 19.2-.6 2.8-.6 3-1 3.4-5.3.6-8.5.1-9.7-4.6-11.5-12.8-4.9-37.1-25.4-46.3-39.1-4.1-6.1-11.4-20.1-12.8-24.3-.6-2.1-.3-2 3.9 1.2 11.5 8.7 34.7 19 53.5 23.6 10.5 2.6 10.6 2.5 11.7-4.7.6-3.9.3-4.6-3.4-9-13.8-16.6-25.4-42.1-29.7-65.4l-1.8-9.5-7.6-3.6c-9.6-4.6-16.2-10.3-22.2-19.6-5.6-8.5-8.5-15.8-10.5-26-7.6-39.4 15.1-78.8 68.4-119.1 8.3-6.3 27.9-19.1 29.2-19.1.3 0-.1 3-1.1 6.8-3.1 12.3-6 27.6-7.5 39.2-2.9 23.2-1.1 63.7 3 67.8 1.3 1.3 2.2 1.4 5.4.4 6-1.8 12.2-6.5 21.6-16.2 8.3-8.6 22-28 23.2-32.7 1.6-6 3.5 1 5.5 19.7 2.9 26.9-6.4 53.7-26.1 75.2-11.1 12.2-26.7 21.9-40.4 25.4-3.6.9-6.6 2-6.6 2.4 0 2.4 5.2 20.7 7.9 27.7 4.5 11.4 5.1 11.7 9.4 4.1 1.9-3.5 4.7-8.8 6.2-11.8s5.7-9.7 9.3-14.9c20.8-30 51.8-57 80.7-70.2 5.2-2.4 9.7-5.1 9.9-5.9 4.3-16.3 11.2-40 11.7-40 .4 0 5.4 5.8 11.1 12.9 11.1 13.9 13.7 16.1 19.1 16.1 5 0 7-2.8 15.8-21.8 4-8.9 7.7-16.2 8-16.2.3 0 4.1 7.5 8.3 16.8 4.3 9.2 8.5 17.5 9.3 18.4 2.3 2.6 7.5 3.3 11 1.5 1.6-.9 7.8-7.7 13.8-15.2 9.3-11.5 11.1-13.3 12.1-12 1.1 1.5 8 25.2 10.5 36l1.1 5 10.7 5.2c39.4 19.1 74.6 54.1 93.6 92.9 2.6 5.3 5.2 9.3 5.8 9.1 2.3-.7 7.4-12.9 10.7-25.2 1.8-6.9 3.1-12.7 2.9-12.8-.2-.2-4-1.3-8.4-2.6-39-11.1-66.5-49.8-66.5-93.5 0-7.4 2.4-23.7 3.8-26.3.6-1 2.3 1.1 6 7.1 12 19.6 25.8 34.6 36.7 40 6.5 3.2 9.6 2.9 11.4-1 2.1-4.7 3.4-17.6 3.4-35.4.1-19.7-1.5-33.3-6.9-58.9-1.8-9.1-3.2-16.6-3.1-16.7.8-.9 17.9 9.8 28.8 18 53.9 40.2 76.6 80.2 68.4 120.1-4.5 21.4-16.3 37.8-33.1 46.1l-7.1 3.4-1.7 8.9c-2.1 11.8-6.6 25.5-12 36.6-4.6 9.4-17 29-19.9 31.4-1.9 1.5-2.2 5.7-.7 9.7 1 2.6 1.3 2.6 6.5 2 13.2-1.5 42.7-13.8 57.2-23.8 2.4-1.6 4.3-2.5 4.3-1.9 0 2-6.2 14.5-10.3 20.9-10.4 15.8-26.9 31.1-43.4 40.3l-9.3 5.1v13.7l4.3.6c5.4.8 28.2 1.1 36.7.6 3.6-.3 10.9-1.5 16.4-2.8 5.4-1.3 10.1-2.1 10.4-1.9.8.9-5.5 8.2-13.6 15.7-4.2 4-12.3 10.2-17.8 13.9-10.1 6.7-28.4 16.2-33.7 17.5-3.7 1-4.3 2.5-5.1 13-1.5 20.1-11.5 105.8-14.1 120.8-.9 5.3-2.2 8.9-3.9 11.2-2.4 3.1-14.5 12.9-15.2 12.2-.2-.1.7-3.6 2-7.7 2.5-8 5.5-23.2 6.1-31.5 2.3-28.2 6.3-86.7 6-87.2-.1-.1-4.6 1.9-10.1 4.6-11.6 5.7-24.9 10.3-36.5 12.7-6.3 1.3-11.5 1.5-22.8 1.1-16.9-.5-27.2-3.1-40.1-9.7-7.9-4.2-22.6-16.1-27.3-22.3-3.7-4.9-16.5-13.2-23.4-15.2-4.2-1.2-8.3-1.6-14.9-1.3-8.2.3-10 .8-16.9 4.2-6.3 3.1-9.5 5.7-17.4 13.8-5.3 5.5-12.3 12-15.6 14.5-21.6 16.4-50.6 20.9-81.5 12.8-5.2-1.4-16-5.5-23.9-9l-14.4-6.4.7 11.2c1.9 30.6 6.9 85.9 8.7 95.7 1.2 6.6 4.8 18 6.2 19.8 2.6 3.3-1.9.6-9.7-5.8zm284.1-128.6c20.5-4.5 37.6-21.4 41.8-41.1 6.1-28.6-8.1-52.7-35.1-59.7-7.7-2-21.9-2-30.2-.1-17.8 4.2-37.4 19.4-44.6 34.5-2.9 6.1-3.1 7.2-3.1 18 0 11.2.1 11.7 3.7 19.1 12.1 24.8 37.7 35.9 67.5 29.3zm-204.2.1c20.6-5.4 36.9-21.5 40.5-40.3 1.9-9.3.8-16.9-3.5-26-2.9-6.2-5.4-9.4-12.9-16.8-7.6-7.5-10.8-9.9-17.7-13.2-10.5-5-16.4-6.4-27.6-6.3-23 0-41.9 11.8-49.4 30.9-1.9 4.8-2.3 7.7-2.3 18.7-.1 11.9.1 13.5 2.5 19.3 7.2 16.9 20.5 28.6 38.1 33.2 9.1 2.4 24.1 2.6 32.3.5z"/>
    </g>
    <path d="M434.5 684.6c-23.9-4.8-42.8-18.2-54.3-38.6-7.7-13.6-11.2-25.1-14.2-46.6-1.8-13.2-5-52.5-5-61.8v-4.4l7.6 3c13.8 5.3 24.2 7.2 40.9 7.2 12.2 0 16.7-.4 24-2.2 17.5-4.4 34.3-14.6 46.6-28.3 13.6-15.1 15.1-16.4 21.5-18.2 7.6-2.1 13.5-2.2 20.5-.1 6.8 2 10 4.3 14.5 10.2 13.6 18.1 32.9 30.4 56.4 36.3 7.8 1.9 12.1 2.3 24 2.3 15.6 0 24.6-1.6 38.4-6.8 3.8-1.4 7.3-2.6 7.8-2.6 1.5 0-1 35.7-4.2 60.6-4.9 37.9-16 60.5-37.5 76.4-14.7 10.9-35 16.7-48.6 14.1-13.1-2.6-18.9-7.7-26.7-23.3-6-12.1-9.3-15.6-17.9-18.8-5.1-1.9-7.2-2.1-18.3-1.8-10.3.4-13.2.8-16.6 2.6-5.9 3-11 9.3-17.3 21.1-5.8 10.8-9.8 15.2-16.8 18.3-5.7 2.5-16.1 3.1-24.8 1.4zm38.1-71.6c10.9-2.8 25.7-10.7 36.7-19.7l2.9-2.3 4.1 3.4c11.1 9.1 27.1 17.1 39.2 19.7 8.5 1.8 30.4 1.5 38.9-.5 22.8-5.4 44.3-22.7 47.1-37.9 1.4-7.3-5-17.5-12-19.3-4.6-1.1-5.5 0-5.4 6.4.2 7-1 9.5-5.1 11.2-7.1 3-17.5-.7-37.7-13.4-26-16.3-37.1-18-55.6-8.5-12.2 6.2-14.7 6.2-27 .1-12.3-6.1-18.6-7.1-29.3-4.9-8.4 1.8-13.5 4.3-26.4 12.8-11.9 7.8-23.5 13.6-28.8 14.5-10.4 1.6-14.6-2-14-12.4l.3-5.7-3.6.1c-7.6.2-14.6 9.4-13.7 17.8 2 17.7 29.6 37.2 57.5 40.6 9 1.1 23.1.2 31.9-2z" fill="#feb473"/>
</svg>
