<svg enable-background="new 0.21 -0.077 110 110" height="110" viewBox=".21 -.077 110 110" width="110" xmlns="http://www.w3.org/2000/svg" xmlns:xlink="http://www.w3.org/1999/xlink"><linearGradient id="a" gradientTransform="matrix(1 0 0 -1 -53.2974 66.4321)" gradientUnits="userSpaceOnUse" x1="63.8159" x2="118.4934" y1="56.6829" y2="1.8225"><stop offset="0" stop-color="#387eb8"/><stop offset="1" stop-color="#366994"/></linearGradient><linearGradient id="b" gradientTransform="matrix(1 0 0 -1 -53.2974 66.4321)" gradientUnits="userSpaceOnUse" x1="97.0444" x2="155.6665" y1="21.6321" y2="-34.5308"><stop offset="0" stop-color="#ffe052"/><stop offset="1" stop-color="#ffc331"/></linearGradient><path d="m55.023-.077c-25.971 0-26.25 10.081-26.25 12.156v12.594h26.75v3.781s-27.852 0-37.375 0c-7.949 0-17.938 4.833-17.938 26.25 0 19.673 7.792 27.281 15.656 27.281h9.344s0-9.765 0-13.125c0-5.491 2.721-15.656 15.406-15.656h26.531c3.902 0 14.906-1.696 14.906-14.406 0-13.452 0-17.89 0-24.219.001-3.153-.538-14.656-27.03-14.656zm-14.75 8.469c2.662 0 4.813 2.15 4.813 4.813 0 2.661-2.151 4.813-4.813 4.813s-4.813-2.151-4.813-4.813c0-2.663 2.151-4.813 4.813-4.813z" fill="url(#a)"/><path d="m55.397 109.923c25.959 0 26.282-10.271 26.282-12.156 0-3.148 0-12.594 0-12.594h-26.782v-3.781h37.375c8.009 0 17.938-4.954 17.938-26.25 0-23.322-10.538-27.281-15.656-27.281-2.336 0-9.344 0-9.344 0s0 10.216 0 13.125c0 5.491-2.631 15.656-15.406 15.656-15.91 0-19.476 0-26.532 0-3.892 0-14.906 1.896-14.906 14.406v24.219c0 5.23 3.196 14.656 27.031 14.656zm14.751-8.469c-2.662 0-4.813-2.151-4.813-4.813s2.15-4.813 4.813-4.813c2.661 0 4.813 2.151 4.813 4.813s-2.152 4.813-4.813 4.813z" fill="url(#b)"/></svg>